<svg width="33" height="32" viewBox="0 0 33 32" xmlns="http://www.w3.org/2000/svg"><title>Fill 3</title><desc>Created with Sketch.</desc><path d="M636.498481,430 C627.388256,430 620,437.344673 620,446.405419 C620,453.653412 624.727309,459.801667 631.283956,461.970929 C632.109488,462.121991 632.410326,461.615428 632.410326,461.180367 C632.410326,460.791632 632.396145,459.759369 632.388041,458.390741 C627.79849,459.381712 626.830136,456.191266 626.830136,456.191266 C626.07956,454.295932 624.997759,453.791382 624.997759,453.791382 C623.499647,452.774226 625.111207,452.794368 625.111207,452.794368 C626.767335,452.910183 627.638448,454.485264 627.638448,454.485264 C629.110224,456.991899 631.500721,456.267805 632.440713,455.84785 C632.590626,454.788397 633.017066,454.065309 633.488075,453.655426 C629.824335,453.241514 625.972191,451.833608 625.972191,445.547382 C625.972191,443.756785 626.615396,442.291476 627.670862,441.145413 C627.500691,440.730493 626.934467,439.061753 627.832929,436.803868 C627.832929,436.803868 629.217594,436.362765 632.369809,438.4857 C633.685595,438.121136 635.097609,437.93986 636.500506,437.932811 C637.902391,437.93986 639.313392,438.121136 640.631204,438.4857 C643.781393,436.362765 645.164032,436.803868 645.164032,436.803868 C646.06452,439.061753 645.498296,440.730493 645.329138,441.145413 C646.386629,442.291476 647.024771,443.756785 647.024771,445.547382 C647.024771,451.849722 643.166549,453.236478 639.491666,453.642334 C640.083213,454.148897 640.610946,455.14994 640.610946,456.68071 C640.610946,458.873134 640.590687,460.642583 640.590687,461.180367 C640.590687,461.619456 640.888486,462.130048 641.72516,461.969922 C648.276743,459.795625 653,453.651397 653,446.405419 C653,437.344673 645.611744,430 636.498481,430" transform="translate(-620 -430)" fill="#353535"/></svg>