<svg width="33" height="33" viewBox="0 0 33 33" xmlns="http://www.w3.org/2000/svg"><title>Shape</title><desc>Created with Sketch.</desc><path d="M689.02713,462.054261 C680.189739,462.054261 673,454.864522 673,446.02713 C673,437.189739 680.189739,430 689.02713,430 C697.864522,430 705.054261,437.189739 705.054261,446.02713 C705.054261,454.864522 697.864522,462.054261 689.02713,462.054261 L689.02713,462.054261 Z M702.543478,448.221043 C702.07513,448.073217 698.306261,446.949217 694.016348,447.635826 C695.806783,452.556174 696.535478,456.563478 696.675826,457.396348 C699.74713,455.319652 701.933391,452.030087 702.543478,448.221043 L702.543478,448.221043 Z M694.374435,458.649565 C694.170957,457.448522 693.376,453.262609 691.454087,448.268348 C691.424,448.278609 691.393913,448.288348 691.363826,448.298783 C683.642435,450.989391 680.870609,456.344 680.624348,456.847652 C682.945391,458.657565 685.862435,459.737565 689.02713,459.737565 C690.923478,459.737565 692.730957,459.349739 694.374435,458.649565 L694.374435,458.649565 Z M678.856696,455.201217 C679.166783,454.670435 682.923826,448.449565 689.984174,446.167478 C690.162609,446.109739 690.342609,446.055652 690.523652,446.004522 C690.18,445.226783 689.805739,444.448348 689.413739,443.681391 C682.577391,445.727478 675.943478,445.641913 675.344348,445.629739 C675.340174,445.768696 675.337391,445.908 675.337391,446.048 C675.337391,449.564 676.670261,452.774261 678.856696,455.201217 L678.856696,455.201217 Z M675.626783,443.244174 C676.23913,443.252348 681.87913,443.27687 688.282609,441.576348 C686.014261,437.544 683.568,434.154087 683.206957,433.65913 C679.377043,435.465565 676.514435,438.996174 675.626783,443.244174 L675.626783,443.244174 Z M685.818957,432.738957 C686.197391,433.245565 688.683826,436.631478 690.926957,440.753043 C695.794783,438.928522 697.855478,436.158783 698.101739,435.808 C695.684348,433.66313 692.505391,432.358435 689.026957,432.358435 C687.922609,432.358435 686.848522,432.490783 685.818957,432.738957 L685.818957,432.738957 Z M699.623652,437.390957 C699.334957,437.781391 697.041043,440.722087 691.979478,442.788696 C692.298087,443.44087 692.603478,444.104 692.887826,444.771478 C692.988522,445.008174 693.086783,445.243652 693.182783,445.477913 C697.737739,444.905217 702.263826,445.82313 702.71513,445.918609 C702.68487,442.687478 701.530261,439.720522 699.623652,437.390957 L699.623652,437.390957 Z" transform="translate(-673 -430)" fill="#353535"/></svg>