<svg width="56" height="64" viewBox="0 0 56 64" xmlns="http://www.w3.org/2000/svg"><title>Logo</title><desc>Created with Sketch.</desc><path d="M148,50 L176,66 L176,98 L148,114 L120,98 L120,66 L148,50 Z M130.488,91 L136.872,91 C142.92,91 146.448,87.4 146.448,82.552 L146.448,82.504 C146.448,77.656 142.968,74.2 136.968,74.2 L130.488,74.2 L130.488,91 Z M135.144,86.872 L135.144,78.328 L137.04,78.328 C139.824,78.328 141.672,79.888 141.672,82.576 L141.672,82.624 C141.672,85.336 139.824,86.872 137.04,86.872 L135.144,86.872 Z M148.848,91 L153.408,91 L153.408,81.4 L157.68,87.928 L157.776,87.928 L162.072,81.352 L162.072,91 L166.704,91 L166.704,74.2 L161.784,74.2 L157.776,80.704 L153.768,74.2 L148.848,74.2 L148.848,91 Z" transform="translate(-120 -50)" fill="#F1F1F1"/></svg>