<?xml version="1.0" encoding="UTF-8" standalone="no"?>
<svg width="16px" height="16px" viewBox="0 0 16 16" version="1.1" xmlns="http://www.w3.org/2000/svg" xmlns:xlink="http://www.w3.org/1999/xlink" xmlns:sketch="http://www.bohemiancoding.com/sketch/ns">
    <!-- Generator: Sketch 3.0.4 (8054) - http://www.bohemiancoding.com/sketch -->
    <title>Rectangle 15 + DM</title>
    <desc>Created with Sketch.</desc>
    <defs></defs>
    <g id="Page-1" stroke="none" stroke-width="1" fill="none" fill-rule="evenodd" sketch:type="MSPage">
        <g id="Desktop-HD" sketch:type="MSArtboardGroup" transform="translate(-311.000000, -66.000000)">
            <g id="Rectangle-15-+-DM" sketch:type="MSLayerGroup" transform="translate(311.000000, 66.000000)">
                <rect id="Rectangle-15" fill="#333333" sketch:type="MSShapeGroup" x="0" y="0" width="16" height="16" rx="2"></rect>
                <path d="M2,11 L4.184,11 C5.944,11 7.16,9.776 7.16,8.2 L7.16,8.184 C7.16,6.608 5.944,5.4 4.184,5.4 L2,5.4 L2,11 Z M3.232,9.888 L3.232,6.512 L4.184,6.512 C5.192,6.512 5.872,7.208 5.872,8.2 L5.872,8.216 C5.872,9.208 5.192,9.888 4.184,9.888 L3.232,9.888 Z M8.3999939,11 L9.6079939,11 L9.6079939,7.368 L11.1679939,9.736 L11.1999939,9.736 L12.7759939,7.344 L12.7759939,11 L13.9999939,11 L13.9999939,5.4 L12.6719939,5.4 L11.1999939,7.768 L9.7279939,5.4 L8.3999939,5.4 L8.3999939,11 Z" id="DM" fill="#F1F1F1" sketch:type="MSShapeGroup"></path>
            </g>
        </g>
    </g>
</svg>